<svg xmlns="http://www.w3.org/2000/svg" width="16" height="15" viewBox="0 0 16 15">
    <path fill="#FFF" fill-rule="nonzero" d="M14.555.007v1.932c0 .873-.724 1.577-1.618 1.577h-1.02c-.894 0-1.628-.704-1.628-1.577V0h-4.6v1.939c0 .873-.735 1.577-1.628 1.577h-1.02c-.894 0-1.619-.704-1.619-1.577V.007C.642.03 0 .66 0 1.437v11.324c0 .79.656 1.44 1.465 1.44h13.048c.808 0 1.465-.651 1.465-1.44V1.438c0-.777-.642-1.408-1.423-1.431zm-.474 12.048a.626.626 0 0 1-.633.62H2.502a.626.626 0 0 1-.634-.62V6.207c0-.342.284-.62.634-.62h10.946c.35 0 .633.278.633.62v5.848z"/>
</svg>
