<svg xmlns="http://www.w3.org/2000/svg" width="17" height="15" viewBox="0 0 17 15">
    <path fill="#FFF" fill-rule="nonzero" d="M11.688 3.66c0 .866.713 1.568 1.593 1.568s1.594-.702 1.594-1.568c0-.866-.713-1.569-1.594-1.569-.88 0-1.593.703-1.593 1.569zm4.223-2.588a3.761 3.761 0 0 0-5.26 0 3.622 3.622 0 0 0-1.05 2.065L6.201 8.206c-.456.023-.91.137-1.327.343L2.253 6.532a1.41 1.41 0 0 0-1.957.237 1.358 1.358 0 0 0 .24 1.926l2.589 1.992a3.264 3.264 0 0 0 .878 3.15 3.393 3.393 0 0 0 4.744 0 3.264 3.264 0 0 0 .93-2.911l4.136-3.644a3.725 3.725 0 0 0 2.098-1.034 3.619 3.619 0 0 0 0-5.176zM6.375 13.703c-1.235 0-2.236-.985-2.236-2.2v-.035l1.112.854c.255.196.557.291.857.291a1.4 1.4 0 0 0 1.1-.527 1.358 1.358 0 0 0-.24-1.926l-1.054-.811a2.28 2.28 0 0 1 .461-.047c1.235 0 2.236.985 2.236 2.2 0 1.216-1 2.201-2.236 2.201zm6.906-7.429c-1.467 0-2.656-1.17-2.656-2.614s1.19-2.614 2.656-2.614c1.467 0 2.657 1.17 2.657 2.614s-1.19 2.614-2.657 2.614z"/>
</svg>
