<svg width="88" height="61" viewBox="75 36 88 61" xmlns="http://www.w3.org/2000/svg">
  <path d="M144.437 83.9c-.4.363-.803.713-1.235 1.02-2.19 1.546-4.805 2.438-7.556 2.438-2.704 0-5.318-.885-7.524-2.437-.205-.145-.43-.278-.633-.436-.07-.065-.165-.105-.242-.173-.394-.325-.716-.713-1.067-1.082-.4-.42-.768-.842-1.1-1.306-1.388-1.897-2.278-4.115-2.496-6.514-.312-3.495.747-6.905 2.994-9.602 2.503-3.005 6.192-4.727 10.103-4.727 1.583 0 3.15.302 4.62.858.515.195 1.01.438 1.5.696.525.275 1.017.604 1.502.95.257.185.536.337.78.543.13.11.228.246.354.358 1.258 1.134 2.275 2.46 3 3.94.7 1.428 1.168 2.97 1.315 4.6.22 2.435-.267 4.802-1.313 6.937-.46.936-.996 1.842-1.688 2.67-.39.474-.863.855-1.313 1.27zm7.03.555l-.224-.185-.48.577-1.848-1.548c2.13-3.09 3.173-6.762 2.826-10.547-.32-3.61-1.87-6.882-4.304-9.485-.463-.5-.902-1.012-1.436-1.453-.492-.412-1.04-.745-1.566-1.09-.375-.244-.74-.485-1.134-.698-.488-.26-.992-.485-1.502-.694-.493-.203-.99-.372-1.5-.524-1.496-.448-3.047-.734-4.62-.734-4.814 0-9.33 2.12-12.407 5.81-2.763 3.315-4.07 7.503-3.686 11.795.23 2.505 1.074 4.834 2.346 6.92.282.456.563.916.886 1.344.257.34.547.657.83.977.093.11.205.208.31.315.446.474.862.96 1.366 1.383.586.494 1.225.906 1.873 1.306 2.53 1.563 5.445 2.437 8.44 2.437 3.065 0 6.006-.862 8.533-2.436 1.03-.64 1.982-1.402 2.857-2.27l.404.337 1.4 1.168-.48.574.223.185 10.655 8.88 2.885-3.458-10.646-8.885zM86.333 70.047l19.763 6.532-.94 2.846-19.762-6.53.94-2.85zm0-8.047l19.763 6.53-.94 2.85-19.762-6.53.94-2.85zm18.817 1.333l-19.776-6.53.94-2.85 19.774 6.532-.938 2.848zm0-8.05l-19.776-6.53.94-2.85 19.774 6.532-.938 2.848zm11.204-2.848l19.772-6.53.943 2.848-19.774 6.53-.942-2.848zm-34.206-9.548v-3.174l14.86 3.174 12.71 2.715V84.565l-27.575-5.887V45.892l.005-3.005zm35.08 45.037h5.53c-.688-.64-1.318-1.312-1.888-2.027-.25-.316-.472-.65-.697-.976-.08-.12-.18-.234-.254-.354-.298-.446-.56-.9-.81-1.36l-6.382 1.36V45.602l12.71-2.715 14.86-3.174v16.255c.507.13 1.007.278 1.503.448.508.174 1.006.366 1.502.586.38.17.762.342 1.135.536 1.044.552 2.046 1.217 3 1.98V42.883h-4.135V36l-32.084 6.852L79.14 36v6.884H75V87.92h30.21v4.504h-6.005v3.003h24.02v-3.003h-6.004v-4.5h.008z" fill="#FFF" fill-rule="evenodd"/>
</svg>
