<svg width="60" height="60" viewBox="88 35 60 60" xmlns="http://www.w3.org/2000/svg">
  <path d="M142.81 35v9.526h-17.145c-.527-2.143-2.474-3.71-4.763-3.71-2.718 0-4.91 2.192-4.91 4.91s2.192 4.91 4.91 4.91c2.29 0 4.236-1.566 4.763-3.71h17.144V63.74l-4.19-.002c-.526-2.142-2.473-3.71-4.762-3.71-2.72 0-4.91 2.193-4.91 4.91 0 2.718 2.19 4.912 4.91 4.912 2.29 0 4.236-1.568 4.762-3.712h4.19V82.95h-4.57c-.526-2.142-2.472-3.71-4.762-3.71-2.29 0-4.237 1.57-4.764 3.71h-7.432c-.526-2.142-2.474-3.71-4.763-3.71-2.29 0-4.238 1.57-4.764 3.71h-5.768c-.526-2.142-2.474-3.71-4.763-3.71-2.29 0-4.237 1.57-4.763 3.71H93.18V66.237h3.28c.528 2.143 2.475 3.71 4.766 3.71 2.288 0 4.236-1.567 4.762-3.71h13.237c.527 2.143 2.474 3.71 4.763 3.71 2.718 0 4.91-2.19 4.91-4.91 0-2.718-2.192-4.91-4.91-4.91-2.29 0-4.236 1.568-4.763 3.71H105.99c-.526-2.142-2.474-3.71-4.763-3.71-2.29 0-4.237 1.568-4.763 3.71H93.18V46.95h3.28c.528 2.144 2.475 3.71 4.766 3.71 2.718.002 4.91-2.19 4.91-4.91 0-2.718-2.192-4.91-4.91-4.91-2.29 0-4.238 1.568-4.764 3.71H93.18V35H88v60h5.192v-9.526h3.282c.526 2.143 2.473 3.71 4.763 3.71s4.237-1.567 4.763-3.71h5.718c.528 2.143 2.474 3.71 4.764 3.71s4.236-1.567 4.764-3.71h7.433c.525 2.143 2.472 3.71 4.76 3.71 2.292 0 4.24-1.567 4.765-3.71h4.567V95H148V35h-5.19zm-31.765 15.673c2.712 0 4.91-2.2 4.91-4.91s-2.198-4.91-4.91-4.91-4.91 2.2-4.91 4.91c0 2.712 2.198 4.91 4.91 4.91z" fill="#FFF" fill-rule="evenodd"/>
</svg>
