<svg xmlns="http://www.w3.org/2000/svg" width="36" height="36" viewBox="0 0 36 36">
    <g fill="#A8A8A8" fill-rule="nonzero">
        <path d="M17.794.57C7.994.57.108 8.453.108 18.254c0 9.8 7.885 17.685 17.686 17.685 9.8 0 17.685-7.885 17.685-17.685 0-9.8-7.884-17.686-17.685-17.686zm0 32.423c-8.106 0-14.738-6.632-14.738-14.738S9.688 3.517 17.794 3.517s14.738 6.632 14.738 14.738S25.9 32.993 17.794 32.993z"/>
        <path d="M25.757 16.953h-6.753V10.2c0-.334-.39-.948-1.228-.948-.837 0-1.228.67-1.228.948v6.753H9.74c-.335 0-.95.39-.95 1.228 0 .837.67 1.228.95 1.228h6.752v6.753c0 .335.391.948 1.228.948s1.228-.67 1.228-.948v-6.697H25.7c.335 0 .948-.391.948-1.228s-.613-1.284-.892-1.284z"/>
    </g>
</svg>
