<svg id="Layer_1" xmlns="http://www.w3.org/2000/svg" viewBox="0 0 128 128"><style>.st0{fill:#FFFFFF;}</style><path class="st0" d="M105 26.1v-.3h-1v.6h-6v-2h-1.9V21h-.8v4.3h-1v-1.2H71.9v-.6h-1.5v-2.1h-.6v1.2h-.6v1.5H68c-1 .4-2.6 1-4.1.7 0-.1-.1-.3 0-.4.6-.3.4-.4.2-.8-.1-.4-.2-1.1-.2-1.9.5-.4 1.5-.8 2.2-1 1.8-2.2 0-5.5-.4-7.3-.5-.4-1-.6-1.7-.9-6.5-4.7-15.8-.3-13.1 7.9.2.7.6 1.4.6 2.2-1.6 1.5-1 .1-2-.2-2.8-1-5.2 1.3-6.5 3.5-3.7 6.6-1.8 11.9-2.9 13.3-.4 1.6-3.7.4-4.4 1.3 0 0-2.4 10.1.1 10.7.8.2 1.9.4 2.4.5.3 0 .6.8.6 1.2-.3.1-2 .3-2.7.5-1.1.5.4 9 .4 10.5-.3.2-.6 0-.9.2-.7.4-1.8 4-1.5 6 .2 1 1.4.9 1.7 1.3-.1 3.3-2.1 7.8-1.2 10.9.5 1.5-.4 2.3-1 3.3-.8 1.2-.1 1.2-1.5 2.5-.7 1.4-1.5 2.8-2.3 4.2-.5 1-.2 2.6-.6 3.7-.8 2.3-3.6 4.8-1.4 7.2.1.6-2.7 9.8-2.7 11.2 0 1.2.4 2.2 1.8 2.4 2.1.3 6 .3 6.2-.8.2-1-.5-1.8-.7-2.6v-4.9c.2-.9 1.6-4 1.6-4.4.8-.5 2 .1 2.4-.5.9-1.3.8-4.2 1.7-6.3.5-1.1.9-2.3 1.3-3.5.1-.5-.5-1.7-.2-2.5.1-.2.3-.4.5-.6.3-.5.3-1.2.6-1.7 2-1.3 1.2-1.2 2.2-3.1.2-.4 1.3-.6 1.6-1.2.5-.8.1-2 .5-3 .5-1.8 2.4-7 3.5-8.6.7-1 1.5-1.3 1.5-1.3 1.3 2.3.7 1.8 3.7 3.1.4.1 3.9 5.8 4.4 6.5 1.4 2.1 1.8 2 4.3 2 1 1 1.1 1.8.8 3.5v1.6c-.2.5-.8.7-1 1.3-.3.8.1 1.8.2 2.5.1 1.5.1 2.8.4 3.9 0 1.4.2 4 1.4 4.9 0 1.3.5 6.1.3 6.8-.2.4-.4.7-.6 1-.2.6-.8 4.5-.8 5 .4.1 1.9.6 3.8.6l.1-.5c2.9 0 6.4 2.7 11.8 1 .9-3-1.9-2.8-3.7-3.6-.8-.3-3.9-3.9-4.1-4.8-.4-1.2 0-4.7 0-6.3.6-.8.6-.6.6-1.7 1-1.7-.6-3.1-.2-4.9.2-.9.4-2.1.6-3v-1.9c.1-.2.1-.5.2-.7V86c.1-.5.5-2 .2-2.9-1-1.7-.1-3.1-1.5-3.1-3-4-2.1-9.2-9.1-16.4-.4-.6-1.1-4.1 0-4.7.6-.2 1.3.6 2.2.6 1.8-1.7 2.8-10.4 1.9-12.7-.3-.7-1.2-1.1-1.8-1.5-1.2-.7-.2-3.1.8-2.8 1.2.4 3.6 1.9 4.2 2.2 2.5 1.1 4.1 2.4 5.6 2.1 1-.2 5.4-4.2 5.7-6 .2-1.2 0-2.7 0-2.8.4-.1 1.1-.3 1.6-.4 0 0 .1 0 .1-.1v-.2c-.6-2.5-.7-2.7-.7-5.5 2-1.4 1.3-1.2 2.5-2.8.2 0 .4-.1.6-.2v-.1H94v-1.2h1.1v.5h2.6v-.6h5.9v.6h1.2v-.3h2.8v-1.6H105zm-31.4 10c-.3-.4-1.2-1.8-1.4-2.7h3.7c-.4.6-1.6 2.7-2.3 2.7zm2.8-3.5h-3.1v-.5c.8 0 1.4-.2 1-.9-.5-1.1 1.9-1 2.2-.8.7.4.3 1.6-.1 2.2z"/></svg>