<svg id="Layer_1" xmlns="http://www.w3.org/2000/svg" viewBox="0 0 128 128"><style>.st0{fill:#FFFFFF;}</style><path class="st0" d="M72.4 10.9l-18.2.3-3.8 2.8.3.3-12.1.3.9-1.2-27.5-.6-.3 1.9-.3 2.8 1.9 3.4-.9 7.1-1.5 6.2.9 5.9.3 4.6 1.9 6.2-.6 3.1.3 3.4 2.2 2.5.6 4-4 1.5.5 12.4 2.5 1.9L14 90.5l-1.2.6-.9 20.8 1.1-.1 2.6.5s3.2 1.1 3.8 1.3c.7.2 1.6-1 1.6-1h2.6l2.2-.4 1.2.6 1.1-.1 2.7-.2 1.3-.6.5 1.3.4-.3 1.2-.6 2.5-.2.5.8s3.1.3 4.2.3.9-.9.9-.9.3-.1.9.4c.5.5 1.3-.2 1.3-.2l1.1-.6.8.8.8.5 2.1-.4h3.4l.8-.2 3.2 4.5.2-2.3H62c.4 0 .2 1.5.2 1.5l3.4-1.1 1.7 1.8 3.6-2.3 2-.3 3.8-.2h5.5l6.2.4 1.6-.6 1.2-1.1 3.3 1.9 2.4-1s2.6 1 3.1 1.1c.4.1 4.5-.4 4.5-.4l2.5-.7-1.6-1.2 1.1-.4 4.6.2 6.1 1.5-.1-40v-2.5l-1.5.2-2 .3v-1.2l1.1-1 .9-1.3.2-4.7-.3-3.4-1.4-4.2-1.3-1.8-.2-1.6.3-1.1.1-.3 1.4-.6.2-.6-1.1-1.9 1-.6 1.5-.9.6-5.6.3-3.7v-13l-.9-3.7.6-4 .3-1.5-2.8-1.2-10.5-1.9-1.5 2.2-.6-2.5-20.1-.3-.6 3.4-4.9.6-.6-2.2-4.3-.6 1.4-1.8zM33.1 28.4L105 77.2l-5.7 20.4-13.6.4L23 31l10.1-2.6m57 .9l7.9 4.2-2.2 15.3-1.5.4-21-16 16.8-3.9m-59 44l21.4 21.5-12.9 4.6-6.8-.4-8.3-7 6.6-18.7"/></svg>