<svg id="Layer_1" xmlns="http://www.w3.org/2000/svg" viewBox="0 0 128 128"><style>.st0{fill:none;} .st1{fill:#FFFFFF;}</style><path class="st0" d="M80.9 47.2c1.5.6 3.1 1.3 4.5 2.1 8.2 4.7 12.8 13.2 13.1 22 2.3-11.6-1.4-23.6-9.8-31.8M53 31.2c-13.9 4.6-23.8 17.7-23.8 33.2 0 5.3 1.2 10.3 3.2 14.8l19-4.4c-6.6-4.7-11-12.5-11-21.3.1-9.5 5.1-17.7 12.6-22.3zM66.7 90.3c-8.2 4.7-17.8 4.5-25.6.3 10.9 9.6 27.2 11.7 40.6 3.9 4.6-2.7 8.3-6.1 11.2-10.3l-13.3-14c-.8 8.1-5.3 15.7-12.9 20.1zM88.6 39.4c-2.1-2-4.4-3.8-6.9-5.3-4.6-2.7-9.5-4.2-14.5-4.5l-5.7 18.6c6-2.8 13-3.1 19.3-.9"/><path class="st1" d="M97.7 30.4L64 11 18.1 37.4v53.1l12.3 7.1L64 117l45.9-26.5V37.4l-12.2-7zm-68.4 34c0-15.4 9.9-28.5 23.8-33.2-7.5 4.6-12.5 12.8-12.5 22.3-.1 8.8 4.2 16.5 10.9 21.3l-19 4.4c-2.1-4.5-3.2-9.5-3.2-14.8zm52.4 30.2c-13.3 7.8-29.6 5.7-40.6-4 7.8 4.2 17.4 4.4 25.6-.3 7.6-4.4 12.1-12 13-20.1L93 84.4c-3 4.1-6.8 7.7-11.3 10.2zm16.8-23.4c-.2-8.8-4.9-17.2-13.1-22-1.5-.8-3-1.5-4.5-2.1-6.4-2.2-13.4-1.7-19.4.9l5.8-18.6c4.9.5 9.8 2 14.5 4.6 2.7 1.5 5 3.2 6.9 5.3 8.4 8.4 12.1 20.5 9.8 31.9z"/></svg>