<svg id="Layer_1" xmlns="http://www.w3.org/2000/svg" viewBox="0 0 128 128"><style>.st0{fill:#FFFFFF;}</style><path class="st0" d="M55.1 51s18.1-1.5 18.6 15.5-16.2 19.3-26.6 18.9c-10.4-.5-32.2-14.8-30.6-37.6l1.3-8.1 3.6-4.2s8.4-16.9 27.5-22c0 0 1.6-2.7 3.6-2.7s3.6 2.2 6.5 2.5 4-2.7 6.7-2.5c2.7.2 2.9 2.2 5.8 2.7s17.1 2.2 28.6 17.8c0 0 .5 4 2.2 4.7s5.5 2.4 6 3.6 4.4 14.9 4 20.7c-.4 5.8-2 32.9-20 41.3l-.4 4.9s-13.5 12-34 10.6-26.1-3.6-30.9-10.2c-.7-.9-1.6-4.2-1.6-4.2l-1.8-3.8s-1.6-2.7 1.8-2.2c3.5.5 16 5.5 22.9 5.6s10.6-3.5 11.8-3.8c1.3-.4 8.7-3.3 10.9-3.6 2.2-.4 15.6-8.6 17.6-28.4S72.9 35 62.7 34.8c0 0-6.4-.2-7.8.7S44 40.8 39.8 41.4c0 0-3.5 3.3-2.9 7.3s.5 17.7 15.1 17.7c0 0 3.5-1.8 3.1-15.4z"/></svg>