<svg id="Layer_1" xmlns="http://www.w3.org/2000/svg" viewBox="0 0 128 128"><style>.st0{fill:#FFFFFF;}</style><path class="st0" d="M71.2 26.9c5.8 1.1 11.4 3.7 16 7.3l10.1-11.7c-9.5-7.7-21.7-11.9-33.9-11.7-11.8.1-23.6 4.3-32.8 11.7l10.1 11.7c8.5-6.7 19.9-9.5 30.5-7.3z"/><path class="st0" d="M116.2 53.7c-2.1-11-7.9-21.2-16.1-28.8L90 36.6c8.1 7.6 12.5 18.9 11.7 30-.4 5.5-2 10.9-4.7 15.8L76.6 62.6 66.2 40.3V74l20.7 20c-9.2 7.2-21.9 9.5-33.1 6.4-4.6-1.3-8.9-3.4-12.7-6.3L62 74c0-11 .1-22.8 0-33.8L51.7 62.6 31 82.5c-6.3-11-6.5-25.2-.4-36.4 1.9-3.6 4.4-6.8 7.3-9.6l-10-11.6-.5.5c-10.6 10-16.8 24.4-16.6 39 0 15.1 6.9 30 18.4 39.9 10.6 9.3 25 14 39.1 12.8C83.6 116 98 107.8 107 95.4c8.7-11.8 12.1-27.3 9.2-41.7z"/></svg>