<svg id="Layer_1" xmlns="http://www.w3.org/2000/svg" viewBox="0 0 128 128"><style>.st0{fill:#FFFFFF;}</style><g id="LjT3tX.tif"><path class="st0" d="M42 27.4c22.5 14.1 45 28.2 67.8 42.5 4.6-10.4 7.5-20.6 7.1-31.7-.1-3.5-1.7-4.9-4.5-6.2-11.4-5.2-23.4-7.7-35.8-8.3-11.6-.6-23.1 0-34.6 3.7zM91.6 95.7C69.1 81.6 47 67.7 24.2 53.5c.2 1.3.3 1.7.4 2 3.6 13.5 10 25.6 19.2 36 6.5 7.3 13.9 13.4 23.5 16.3 1.2.3 2.5.6 3.6.3 8-2 14.6-6.4 20.7-12.4zM98.1 89c2.5-3.7 4.9-7.2 7.5-10.9-21.3-13.4-42.2-26.5-62.9-39.4-2.4 3.8-4.7 7.4-7.1 11.2C56.2 62.7 76.9 75.7 98.1 89zM23.3 45.8c6.4 0 11.6-5 11.6-11.3 0-6.5-5-11.6-11.5-11.7-6.2 0-11.5 5.2-11.5 11.4 0 6.3 5.2 11.6 11.4 11.6z"/></g></svg>