<svg xmlns="http://www.w3.org/2000/svg">
  <symbol viewBox="0 0 512 512" id="warning">
    <path d="M505.403 406.394L295.39 58.102c-8.275-13.72-23.368-22.245-39.39-22.245-16.024 0-31.117 8.524-39.392 22.246L6.595 406.393c-8.55 14.183-8.804 31.95-.66 46.37 8.144 14.42 23.49 23.38 40.05 23.38h420.028c16.56 0 31.907-8.96 40.052-23.38 8.143-14.42 7.89-32.19-.662-46.37zm-28.364 29.978c-2.243 3.97-6.468 6.436-11.027 6.436H45.985c-4.56 0-8.784-2.466-11.025-6.435-2.242-3.97-2.172-8.862.18-12.765L245.157 75.316c2.278-3.777 6.433-6.124 10.844-6.124 4.41 0 8.565 2.347 10.843 6.124l210.013 348.292c2.355 3.904 2.425 8.795.183 12.764z" />
    <path d="M256.154 173.005c-12.68 0-22.576 6.804-22.576 18.866 0 36.803 4.33 89.687 4.33 126.49 0 9.587 8.35 13.607 18.247 13.607 7.422 0 17.937-4.02 17.937-13.607 0-36.802 4.33-89.686 4.33-126.49 0-12.06-10.206-18.865-22.268-18.865zM256.465 353.306c-13.607 0-23.814 10.824-23.814 23.814 0 12.68 10.207 23.814 23.815 23.814 12.68 0 23.505-11.134 23.505-23.814 0-12.99-10.826-23.814-23.505-23.814z" />
  </symbol>
</svg>
