<svg version="1.1" id="Layer_1" xmlns="http://www.w3.org/2000/svg" xmlns:xlink="http://www.w3.org/1999/xlink" x="0px" y="0px"
	 viewBox="0 0 22 25.2" enable-background="new 0 0 22 25.2" xml:space="preserve">
<g>
	<path fill="#7289DE" d="M8.8,10.6c-0.7,0-1.3,0.6-1.3,1.4c0,0.7,0.6,1.4,1.3,1.4s1.3-0.6,1.3-1.4C10.1,11.2,9.6,10.6,8.8,10.6z
		 M13.5,10.6c-0.7,0-1.3,0.6-1.3,1.4c0,0.7,0.6,1.4,1.3,1.4s1.3-0.6,1.3-1.4C14.7,11.2,14.2,10.6,13.5,10.6z"/>
	<path fill="#7289DE" d="M19.5,0H2.7C1.2,0,0,1.1,0,2.6v17.1c0,1.4,1.1,2.6,2.6,2.6h14.3l-0.7-2.4l1.6,1.5l1.5,1.4l2.7,2.4V2.6
		C22.2,1.1,21,0,19.5,0z M14.7,16.4l-0.8-1c1.6-0.5,2.3-1.5,2.3-1.5c-0.5,0.3-1,0.6-1.4,0.7c-0.6,0.3-1.2,0.4-1.9,0.5
		c-1.2,0.2-2.4,0.2-3.3,0c-0.7-0.1-1.3-0.3-1.9-0.5c-0.3-0.1-0.6-0.2-0.9-0.4c0,0-0.1,0-0.1-0.1c-0.2-0.1-0.3-0.2-0.3-0.2
		s0.6,1,2.3,1.4l-0.8,1c-2.8-0.1-3.8-2-3.8-2C4,10.3,5.9,7,5.9,7c1.9-1.3,3.6-1.3,3.6-1.3l0.1,0.1C7,6.7,6,7.7,6,7.7
		s0.3-0.1,0.7-0.4C8,6.7,9.1,6.6,9.6,6.5h0.2c0.7-0.1,1.6-0.1,2.6,0c1.2,0.1,2.5,0.5,3.8,1.2c0,0-1-0.9-3.2-1.6l0.2-0.2
		c0,0,1.7,0,3.6,1.3c0,0,1.9,3.3,1.9,7.4C18.5,14.6,17.5,16.4,14.7,16.4z"/>
</g>
</svg>
