<svg version="1.1" id="Layer_1" xmlns="http://www.w3.org/2000/svg" xmlns:xlink="http://www.w3.org/1999/xlink" x="0px" y="0px"
	 viewBox="0 0 22 22" enable-background="new 0 0 22 22" xml:space="preserve">
<g>
	<g>
		<g>
			<path d="M7.2,16.9l-2.2-0.8c0.3,1.2,1.3,2,2.6,2c1.5,0,2.7-1.2,2.7-2.7c0-1.5-1.2-2.7-2.7-2.7c-0.5,0-1,0.2-1.4,0.4L8.4,14
				c0.8,0.3,1.2,1.2,0.9,2C8.9,16.8,8,17.2,7.2,16.9z"/>
			<path d="M15.5,10.7c1.8,0,3.3-1.5,3.3-3.3s-1.5-3.3-3.3-3.3c-1.8,0-3.3,1.5-3.3,3.3C12.2,9.2,13.7,10.7,15.5,10.7z M15.5,5.1
				c1.3,0,2.3,1,2.3,2.3s-1,2.3-2.3,2.3c-1.3,0-2.3-1-2.3-2.3C13.1,6.1,14.2,5.1,15.5,5.1z"/>
			<path d="M19.1,0H2.9C1.3,0,0,1.3,0,2.9v7.9l4.2,1.6c0.8-0.9,2-1.5,3.3-1.6l2.5-3.4c0-3,2.4-5.4,5.4-5.4s5.4,2.4,5.4,5.4
				c0,1.6-0.7,3.1-1.9,4.1l0,0l0,0c-0.9,0.8-2.2,1.3-3.5,1.3c-0.1,0-0.3,0-0.4,0l-2.9,2.2c0,0.1,0,0.2,0,0.3c0,2.5-2,4.5-4.5,4.5
				s-4.5-2-4.5-4.5c0,0,0,0,0,0L0,14.1v5C0,20.7,1.3,22,2.9,22h16.2c1.6,0,2.9-1.3,2.9-2.9V2.9C22,1.3,20.7,0,19.1,0z"/>
		</g>
	</g>
</g>
</svg>
