<svg version="1.1" id="Layer_1" xmlns="http://www.w3.org/2000/svg" xmlns:xlink="http://www.w3.org/1999/xlink" x="0px" y="0px"
	 viewBox="0 0 22 22" enable-background="new 0 0 22 22" xml:space="preserve">
<path fill="#00AAEC" d="M21.8,4.1c-0.8,0.4-1.7,0.6-2.6,0.7c0.9-0.6,1.6-1.5,2-2.5c-0.9,0.5-1.8,0.9-2.8,1.1c-0.8-0.9-2-1.4-3.2-1.4
	c-2.5,0-4.4,2-4.4,4.6c0,0.4,0,0.7,0.1,1c-3.7-0.2-7-2-9.2-4.8C1.3,3.5,1.1,4.2,1.1,5.1c0,1.6,0.8,3,2,3.8c-0.7,0-1.4-0.2-2-0.6v0.1
	c0,2.2,1.5,4.1,3.6,4.5C4.2,12.9,3.8,13,3.4,13c-0.3,0-0.6,0-0.8-0.1c0.6,1.8,2.2,3.1,4.2,3.2c-1.5,1.2-3.4,2-5.5,2
	c-0.4,0-0.7,0-1.1-0.1c2,1.3,4.3,2,6.8,2c8.2,0,12.6-6.9,12.6-13c0-0.2,0-0.4,0-0.6C20.5,5.8,21.2,5,21.8,4.1"/>
</svg>
