<svg id="Layer_1" xmlns="http://www.w3.org/2000/svg" viewBox="0 0 50 50"><style>.st0{fill:#62626F;}</style><path class="st0" d="M40.7 26.2c-1-1.4-2.7-2.3-4.9-2.9 2.9-1.4 4-3.9 3.8-7.3-.1-1.3-.5-2.3-1-3.2s-1.3-1.7-2.3-2.2-2.1-1-3.2-1.3c-1.2-.3-2.5-.5-3.9-.6V1.5h-4.4v6.9h-3.5V1.5h-4.4v7.1H8v4.7h3.1c1.4 0 2.2.6 2.5 1.9v8h.4-.4v11.3c-.1 1-.6 1.5-1.7 1.5H8.8l-.9 5.2h8.8v7.3h4.4v-7.1h3.5v7.1H29v-7.1c1.6-.1 2.9-.3 4.2-.4 1.2-.3 2.3-.5 3.4-1 1-.4 1.9-1 2.7-1.7.8-.6 1.3-1.6 1.8-2.5.5-1 .8-2.2.9-3.5.3-2.8-.1-4.7-1.3-6.1zM21.3 13.6H24c.4 0 .9 0 1.7.1.6 0 1.3.1 1.7.3.5.1 1 .3 1.6.5.5.3 1 .5 1.3.8.4.3.6.6.9 1.2.3.5.4 1 .4 1.7 0 .5-.1 1-.3 1.4-.1.4-.4.8-.8 1-.4.3-.6.5-1 .8s-.8.4-1.4.5c-.5.1-1 .3-1.4.3-.4.1-.9.1-1.6.1h-3.8v-8.7zm11.9 19.2c-.1.4-.4.8-.6 1.2-.3.3-.6.6-1.2.9-.5.3-.9.4-1.3.6-.4.1-.9.3-1.6.4s-1.1.1-1.5.3c-.5 0-1 .1-1.7.1h-3.9v-9.6h3.1c.5 0 1.2 0 1.9.1.8 0 1.6.1 2.1.3s1.2.3 1.8.5c.6.3 1.2.5 1.7.9.4.4.8.8 1 1.3.3.5.4 1.2.4 1.8.1.3-.1.8-.2 1.2z"/></svg>