<svg id="Layer_1" xmlns="http://www.w3.org/2000/svg" viewBox="0 0 50 50"><style>.st0{fill:#62626F;}</style><path class="st0" d="M41.7 12.4c.7 1.3 1 2.8 1 4.7 0 4.2-1.8 7.6-5.3 10.2-3.6 2.6-8.5 3.9-14.9 3.9H21c-1.1 0-2.3.9-2.5 2l-1.8 7.7c-.3 1.1-1.4 2-2.5 2h-3.3l-.3 1.1c-.3 1.1.5 2 1.6 2h5.2c1.1 0 2.3-.9 2.5-2l1.8-7.7c.3-1.1 1.4-2 2.5-2h1.5c6.4 0 11.4-1.3 14.9-3.9 3.6-2.6 5.3-6 5.3-10.2 0-1.9-.3-3.4-1-4.7-.7-1.2-1.6-2.3-2.9-3 0 0-.1 0-.3-.1zM13.4 37.6l1.8-7.7c.3-1.1 1.4-2 2.5-2h1.5c6.4 0 11.4-1.3 14.9-3.9 3.6-2.6 5.3-6 5.3-10.2 0-1.9-.3-3.4-1-4.7-.7-1.2-1.6-2.3-2.9-3-1.3-.8-2.8-1.3-4.5-1.7-1.7-.2-3.8-.4-6.1-.4h-11c-1.1 0-2.3.9-2.5 2L4.1 37.6c-.3 1.1.5 2 1.6 2h5.2c1.1 0 2.2-.9 2.5-2zm4.3-18.4l1.6-6.7c.3-1.1 1.4-2 2.5-2h1.7c2 0 3.5.3 4.5 1s1.5 1.7 1.5 3.1c0 2.1-.8 3.7-2.4 4.9-1.6 1.1-3.8 1.7-6.6 1.7h-1.3c-1.1 0-1.8-.9-1.5-2z"/></svg>