<svg id="Layer_1" xmlns="http://www.w3.org/2000/svg" viewBox="0 0 50 50"><style>.st0{fill:#62626F;}</style><path class="st0" d="M44.2 22.3l-1.4.4c-3 .8-6.3-.1-8.5-2.3L28 14.2l-1-1L11.1 29 9 31.1l-9 9 8.7 8.7L14.9 37l2.4 2.4 3.5-3.5 3 7.3 7.2-3-2.4-5.7 4.3-4.3c1 .5 2 .8 3.1 1.1 3 .8 6.1.8 9.1 0l1.4-.4-2.3-8.6zm-25.5 9.5l-2.1-2.1 9-9 2.1 2.1-9 9zm8.7-.3l-.6-1.6 2.2-2.2c.4.3.8.7 1.3 1l-2.9 2.8zM47.9 1.4l-1.7 1.7-1.9-1.9-2.1 2.1 1.9 1.9-5.8 5.8-3.4-3.4-4.6 4.7 5.5 5.4 3.5-3.5 1.1-1.1L50 3.5z"/></svg>